<?xml version="1.0" encoding="iso-8859-1"?>
<!-- Generator: Adobe Illustrator 16.0.0, SVG Export Plug-In . SVG Version: 6.00 Build 0)  -->
<!DOCTYPE svg PUBLIC "-//W3C//DTD SVG 1.1//EN" "http://www.w3.org/Graphics/SVG/1.1/DTD/svg11.dtd">
<svg version="1.1" id="Capa_1" xmlns="http://www.w3.org/2000/svg" xmlns:xlink="http://www.w3.org/1999/xlink" x="0px" y="0px"
	 width="40px" height="40px" viewBox="0 0 45.43 45.43" style="enable-background:new 0 0 45.43 45.43;" xml:space="preserve"
	>
<g>
	<g>
		<path d="M25.925,8.104c-0.275-0.054-0.558-0.101-0.841-0.142c-0.467-0.066-0.634-0.142-0.373-0.186
			c0.262-0.043-0.036-0.135-0.669-0.178c-0.632-0.043-1.189-0.005-1.243,0.051c-0.053,0.056-0.574,0.079-1.165,0.089
			c-0.59,0.008-1.036,0.008-0.996-0.033s0.049-0.072,0.019-0.07c-0.029,0.001-0.086,0.036-0.126,0.077
			c-0.039,0.041-0.149,0.079-0.246,0.086c-0.098,0.007-0.145-0.018-0.107-0.056c0.038-0.039-0.512-0.013-1.219,0.121
			c-0.417,0.077-0.843,0.173-1.273,0.276c-2.779,0.545-5.43,1.646-7.494,3.366C3.009,17.493-0.496,29.675,5.987,37.276
			c0.353,0.413,1.546,0.077,1.812-0.375c6.147-9.408,12.294-18.816,18.44-28.227C26.422,8.397,26.21,8.159,25.925,8.104z
			 M7.772,16.351c1.65-2.547,3.859-4.671,6.467-5.972c0.101-0.05,0.204-0.096,0.309-0.14c0.172-0.072-0.325,0.497-1.112,1.271
			c-1.735,1.708-3.481,3.429-5.242,5.165C7.407,17.452,7.17,17.278,7.772,16.351z M7.849,34.003
			c-0.503,0.77-1.087,1.139-1.287,0.812c-0.2-0.325-0.271-0.479-0.181-0.327c0.09,0.149,0.486-0.031,0.875-0.396
			c0.233-0.219,0.467-0.438,0.705-0.66c0.133-0.138,0.266-0.273,0.398-0.411C8.58,32.793,8.351,33.232,7.849,34.003z M23.52,10.014
			c-0.201,0.311-0.403,0.619-0.606,0.928c-3.974,6.082-7.946,12.165-11.92,18.247c-0.604,0.926-1.184,1.371-1.273,0.992
			c-0.09-0.38-0.711-0.124-1.415,0.576c-0.429,0.427-0.854,0.851-1.274,1.268c-0.206,0.223-0.413,0.442-0.621,0.662
			c-0.344,0.365-0.913,0.027-1.172-0.792c-0.26-0.818,0.244-2.136,1.027-2.915c0.593-0.59,1.185-1.179,1.777-1.768
			c0.783-0.778,1.425-1.447,1.432-1.494c0.007-0.047-0.634,0.537-1.429,1.303c-0.215,0.207-0.418,0.403-0.607,0.586
			c-0.797,0.767-1.718,1.642-2.043,1.971c-0.326,0.328-0.667,0.201-0.732-0.289c-0.065-0.489,0.544-1.521,1.331-2.295
			c0.833-0.822,1.667-1.644,2.501-2.467c0.786-0.774,1.593-2.143,1.875-3.031c0.281-0.891-0.065-0.95-0.833-0.157
			c-1.205,1.243-2.411,2.485-3.615,3.729c-0.768,0.795-1.374,0.742-1.273-0.107c0.101-0.851,0.866-2.172,1.636-2.965
			c2.081-2.146,4.098-4.219,6.018-6.189c0.77-0.792,1.885-2.187,2.616-3.015c0.312-0.354,0.636-0.686,0.967-0.994
			c0.808-0.753,1.879-1.59,2.282-2.001c0.403-0.411,0.815-0.755,0.922-0.767c0.107-0.015-0.002,0.178-0.241,0.425
			c-0.239,0.247-0.4,0.429-0.357,0.405c0.043-0.022,0.258-0.225,0.479-0.449c0.222-0.228,1.294-0.504,2.398-0.501
			c0.255,0.001,0.511,0.006,0.764,0.016C23.237,8.963,23.854,9.502,23.52,10.014z"/>
		<path d="M40.932,0.336c-0.05-0.068-0.124-0.173-0.14-0.256c-0.016-0.082-0.063-0.104-0.108-0.051
			c-0.044,0.055-0.344,0.042-0.659,0.106c-0.192,0.04-0.385,0.112-0.547,0.207c-0.053,0.028-0.101,0.061-0.143,0.094
			c-0.039,0.031-0.074,0.064-0.104,0.099c-0.054,0.059-0.653,0.807-1.348,1.665c-4.005,4.949-7.916,9.978-11.759,15.054
			c-5.42,7.158-12.237,14.945-15.316,23.51c-0.063,0.176,0.095,0.31,0.211,0.397c9.601,7.363,24.658,5.268,29.177-6.809
			c3.903-10.438,2.921-23.102,0.797-33.878C40.983,0.422,40.961,0.376,40.932,0.336z M35.305,7.866
			c1.049-1.336,2.004-2.544,2.822-3.575c0.688-0.865,1.309-1.217,1.383-0.789c0.073,0.428-0.527,1.384-1.338,2.136
			c-0.878,0.814-1.755,1.628-2.633,2.442C34.729,8.831,34.623,8.733,35.305,7.866z M40.475,24.239
			c-0.428,5.49-1.699,11.396-5.482,15.591c-5.944,6.594-15.302,5.146-21.896,0.731c-1.338-0.895,5.452-10.646,12.685-20.299
			c0.663-0.884,1.857-2.206,2.668-2.957c3.357-3.116,6.714-6.23,10.062-9.348c0.811-0.752,1.584-0.475,1.702,0.624
			C40.777,13.789,40.878,19.063,40.475,24.239z"/>
		<path d="M22.665,28.319c-0.79,0.771-0.779,0.783,0.023,0.024c1.246-1.177,2.471-2.334,3.678-3.475
			c0.803-0.76,1.571-1.54,1.72-1.744c0.148-0.205-0.373,0.256-1.162,1.028C25.496,25.55,24.076,26.938,22.665,28.319z"/>
		<path d="M23.389,42.899c-0.85-0.317-1.828-0.325-2.214,0.048c-0.387,0.373,0.124,0.896,1.163,1.055
			c1.038,0.156,2.05,0.013,2.249-0.199C24.786,43.592,24.238,43.219,23.389,42.899z"/>
		<path d="M18.408,37.104c-0.621,0.599-0.912,0.979-1.728,1.724c-0.31,0.281-0.619,0.564-0.93,0.85
			c-0.815,0.745-1.135,1.555-0.703,1.791c0.432,0.236,1.231-0.028,1.773-0.572c0.543-0.545,0.967-0.997,0.947-1.012
			c-0.019-0.015,0.258-0.876,0.737-1.871c0.033-0.068,0.067-0.141,0.103-0.212C19.096,36.81,19.03,36.508,18.408,37.104z"/>
	</g>
</g>
<g>
</g>
<g>
</g>
<g>
</g>
<g>
</g>
<g>
</g>
<g>
</g>
<g>
</g>
<g>
</g>
<g>
</g>
<g>
</g>
<g>
</g>
<g>
</g>
<g>
</g>
<g>
</g>
<g>
</g>
</svg>
